v -2.2280426 -3.0 -1.1300497
v -2.4999995 -3.0 -0.50865364
v -2.3924797 -1.5 -0.5
v -2.1424797 -1.5 -1.2227805
v -2.4999995 -3.0 0.50865364
v -2.3924797 -1.5 0.5
v -2.2280426 -3.0 1.1300497
v -2.1424797 -1.5 1.2227805
v -2.3924797 -0.5 -0.5
v -2.1424797 -0.5 -1.2227805
v -2.3924797 -0.5 0.5
v -2.1424797 -0.5 1.2227805
v -2.3924797 0.5 -0.5
v -2.1424797 0.5 -1.2227805
v -2.3924797 0.5 0.5
v -2.1424797 0.5 1.2227805
v -2.3924797 1.5 -0.5
v -2.1424797 1.5 -1.2227805
v -2.3924797 1.5 0.5
v -2.1424797 1.5 1.2227805
v -2.4999995 3.0 -0.50865364
v -2.2280426 3.0 -1.1300497
v -2.4999995 3.0 0.50865364
v -2.2280426 3.0 1.1300497
v -1.5 -3.0 -0.5
v -1.7673912 -2.9999995 -1.7673912
v -1.5 -3.0 0.5
v -1.7673912 -2.9999995 1.7673912
v -1.1300497 -3.0 -2.2280426
v -1.7227805 -1.5 -1.7227805
v -1.2227805 -1.5 -2.1424797
v -1.7227805 -1.5 1.7227805
v -1.1300497 -3.0 2.2280426
v -1.2227805 -1.5 2.1424797
v -1.7227805 -0.5 -1.7227805
v -1.2227805 -0.5 -2.1424797
v -1.7227805 -0.5 1.7227805
v -1.2227805 -0.5 2.1424797
v -1.7227805 0.5 -1.7227805
v -1.2227805 0.5 -2.1424797
v -1.7227805 0.5 1.7227805
v -1.2227805 0.5 2.1424797
v -1.7227805 1.5 -1.7227805
v -1.2227805 1.5 -2.1424797
v -1.7227805 1.5 1.7227805
v -1.2227805 1.5 2.1424797
v -1.7673912 2.9999995 -1.7673912
v -1.1300497 3.0 -2.2280426
v -1.5 3.0 -0.5
v -1.5 3.0 0.5
v -1.7673912 2.9999995 1.7673912
v -1.1300497 3.0 2.2280426
v -0.5 -3.0 -1.5
v -0.50865364 -3.0 -2.4999995
v -0.5 -3.0 -0.5
v -0.5 -3.0 0.5
v -0.5 -3.0 1.5
v -0.50865364 -3.0 2.4999995
v -0.5 -1.5 -2.3924797
v -0.5 -1.5 2.3924797
v -0.5 -0.5 -2.3924797
v -0.5 -0.5 2.3924797
v -0.5 0.5 -2.3924797
v -0.5 0.5 2.3924797
v -0.5 1.5 -2.3924797
v -0.5 1.5 2.3924797
v -0.50865364 3.0 -2.4999995
v -0.5 3.0 -1.5
v -0.5 3.0 -0.5
v -0.5 3.0 0.5
v -0.5 3.0 1.5
v -0.50865364 3.0 2.4999995
v 0.5 -3.0 -1.5
v 0.50865364 -3.0 -2.4999995
v 0.5 -3.0 -0.5
v 0.5 -3.0 0.5
v 0.5 -3.0 1.5
v 0.50865364 -3.0 2.4999995
v 0.5 -1.5 -2.3924797
v 0.5 -1.5 2.3924797
v 0.5 -0.5 -2.3924797
v 0.5 -0.5 2.3924797
v 0.5 0.5 -2.3924797
v 0.5 0.5 2.3924797
v 0.5 1.5 -2.3924797
v 0.5 1.5 2.3924797
v 0.50865364 3.0 -2.4999995
v 0.5 3.0 -1.5
v 0.5 3.0 -0.5
v 0.5 3.0 0.5
v 0.5 3.0 1.5
v 0.50865364 3.0 2.4999995
v 1.7673912 -2.9999995 -1.7673912
v 1.1300497 -3.0 -2.2280426
v 1.5 -3.0 -0.5
v 1.5 -3.0 0.5
v 1.7673912 -2.9999995 1.7673912
v 1.1300497 -3.0 2.2280426
v 1.2227805 -1.5 -2.1424797
v 1.7227805 -1.5 -1.7227805
v 1.7227805 -1.5 1.7227805
v 1.2227805 -1.5 2.1424797
v 1.2227805 -0.5 -2.1424797
v 1.7227805 -0.5 -1.7227805
v 1.7227805 -0.5 1.7227805
v 1.2227805 -0.5 2.1424797
v 1.2227805 0.5 -2.1424797
v 1.7227805 0.5 -1.7227805
v 1.7227805 0.5 1.7227805
v 1.2227805 0.5 2.1424797
v 1.2227805 1.5 -2.1424797
v 1.7227805 1.5 -1.7227805
v 1.7227805 1.5 1.7227805
v 1.2227805 1.5 2.1424797
v 1.1300497 3.0 -2.2280426
v 1.7673912 2.9999995 -1.7673912
v 1.5 3.0 -0.5
v 1.5 3.0 0.5
v 1.7673912 2.9999995 1.7673912
v 1.1300497 3.0 2.2280426
v 2.4999995 -3.0 -0.50865364
v 2.2280426 -3.0 -1.1300497
v 2.4999995 -3.0 0.50865364
v 2.2280426 -3.0 1.1300497
v 2.1424797 -1.5 -1.2227805
v 2.3924797 -1.5 -0.5
v 2.3924797 -1.5 0.5
v 2.1424797 -1.5 1.2227805
v 2.1424797 -0.5 -1.2227805
v 2.3924797 -0.5 -0.5
v 2.3924797 -0.5 0.5
v 2.1424797 -0.5 1.2227805
v 2.1424797 0.5 -1.2227805
v 2.3924797 0.5 -0.5
v 2.3924797 0.5 0.5
v 2.1424797 0.5 1.2227805
v 2.1424797 1.5 -1.2227805
v 2.3924797 1.5 -0.5
v 2.3924797 1.5 0.5
v 2.1424797 1.5 1.2227805
v 2.2280426 3.0 -1.1300497
v 2.4999995 3.0 -0.50865364
v 2.4999995 3.0 0.50865364
v 2.2280426 3.0 1.1300497
vt 0.0 0.0
vn -0.9320941 0.06916584 -0.40793538
vn -1.0841707 0.038660534 -0.375
vn -1.5259609 0.109380744 0.0
vn -1.5 0.107519865 0.0
vn -0.9320941 0.027949706 0.40793538
vn -1.0841707 0.07987666 0.375
vn -0.72278047 0.0 -0.25
vn -1.0 0.0 0.0
vn -0.72278047 0.0 0.25
vn -1.0841707 -0.07987666 -0.375
vn -0.9320941 -0.027949706 -0.40793538
vn -1.5 -0.107519865 0.0
vn -1.5259609 -0.109380744 -0.0
vn -1.0841707 -0.038660534 0.375
vn -0.9320941 -0.06916584 0.40793538
vn 0.0 -0.6237492 0.0
vn 3.004311E-7 -0.75424504 -3.4715777E-7
vn -0.0 -1.0173068 0.0
vn 0.0 -0.9999995 0.0
vn 2.9630473E-7 -0.11291754 -1.2967917E-7
vn 4.1263775E-9 -1.2650768 4.7683693E-7
vn -0.69097686 0.048982263 -0.95601195
vn -0.6295488 0.0038624406 -0.75
vn -0.9560122 0.011816278 -0.69097704
vn -0.74999976 0.041028455 -0.6295486
vn -0.75 0.0038624406 0.6295488
vn -0.95601195 0.048982263 0.69097686
vn -0.69097704 0.011816278 0.9560122
vn -0.6295486 0.041028455 0.74999976
vn -0.4196992 0.0 -0.5
vn -0.5 0.0 -0.4196992
vn -0.5 0.0 0.4196992
vn -0.4196992 0.0 0.5
vn -0.6295486 -0.041028455 -0.74999976
vn -0.69097704 -0.011816278 -0.9560122
vn -0.75 -0.0038624406 -0.6295488
vn -0.95601195 -0.048982263 -0.69097686
vn 2.9630473E-7 0.11291754 1.2967917E-7
vn 4.1263775E-9 1.2650768 -4.7683693E-7
vn 0.0 1.0173068 0.0
vn 0.0 0.9999995 0.0
vn 0.0 0.6237492 0.0
vn 3.004311E-7 0.75424504 3.4715777E-7
vn -0.9560122 -0.011816278 0.69097704
vn -0.74999976 -0.041028455 0.6295486
vn -0.6295488 -0.0038624406 0.75
vn -0.69097686 -0.048982263 0.95601195
vn -3.4715777E-7 -0.75424504 3.004311E-7
vn -0.0 -1.2673912 -4.7683716E-7
vn -4.7683716E-7 -1.2673912 0.0
vn -0.0 -1.0 0.0
vn -4.7683716E-7 -1.5347824 4.7683716E-7
vn 1.2967917E-7 -0.11291754 -2.9630473E-7
vn -4.7683693E-7 -1.2650768 -4.1263775E-9
vn -0.40793538 0.027949706 -0.9320941
vn -0.375 0.07987666 -1.0841707
vn -0.375 0.038660534 1.0841707
vn -0.40793538 0.06916584 0.9320941
vn -0.25 0.0 -0.72278047
vn -0.25 0.0 0.72278047
vn -0.375 -0.038660534 -1.0841707
vn -0.40793538 -0.06916584 -0.9320941
vn 1.2967917E-7 0.11291754 2.9630473E-7
vn -4.7683693E-7 1.2650768 4.1263775E-9
vn -4.7683716E-7 1.5347824 -4.7683716E-7
vn -0.0 1.0 0.0
vn 0.0 1.2673912 4.7683716E-7
vn -4.7683716E-7 1.2673912 0.0
vn -3.4715777E-7 0.75424504 -3.004311E-7
vn -0.40793538 -0.027949706 0.9320941
vn -0.375 -0.07987666 1.0841707
vn 0.0 0.109380744 -1.5259609
vn 0.0 0.107519865 -1.5
vn 0.0 0.107519865 1.5
vn -0.0 0.109380744 1.5259609
vn 0.0 0.0 -1.0
vn 0.0 0.0 1.0
vn -0.0 -0.107519865 -1.5
vn 0.0 -0.109380744 -1.5259609
vn 0.0 -0.109380744 1.5259609
vn 0.0 -0.107519865 1.5
vn 4.7683693E-7 -1.2650768 4.1263775E-9
vn -1.2967917E-7 -0.11291754 2.9630473E-7
vn 4.7683716E-7 -1.5347824 -4.7683716E-7
vn 4.7683716E-7 -1.2673912 0.0
vn 0.0 -1.2673912 4.7683716E-7
vn 3.4715777E-7 -0.75424504 -3.004311E-7
vn 0.40793538 0.06916584 -0.9320941
vn 0.375 0.038660534 -1.0841707
vn 0.6295486 0.041028455 -0.74999976
vn 0.69097704 0.011816278 -0.9560122
vn 0.6295488 0.0038624406 0.75
vn 0.69097686 0.048982263 0.95601195
vn 0.375 0.07987666 1.0841707
vn 0.40793538 0.027949706 0.9320941
vn 0.25 0.0 -0.72278047
vn 0.4196992 0.0 -0.5
vn 0.4196992 0.0 0.5
vn 0.25 0.0 0.72278047
vn 0.375 -0.07987666 -1.0841707
vn 0.40793538 -0.027949706 -0.9320941
vn 0.69097686 -0.048982263 -0.95601195
vn 0.6295488 -0.0038624406 -0.75
vn 3.4715777E-7 0.75424504 3.004311E-7
vn 4.7683716E-7 1.2673912 0.0
vn 0.0 1.2673912 -4.7683716E-7
vn 4.7683716E-7 1.5347824 4.7683716E-7
vn 0.69097704 -0.011816278 0.9560122
vn 0.6295486 -0.041028455 0.74999976
vn 4.7683693E-7 1.2650768 -4.1263775E-9
vn -1.2967917E-7 0.11291754 -2.9630473E-7
vn 0.40793538 -0.06916584 0.9320941
vn 0.375 -0.038660534 1.0841707
vn -4.1263775E-9 -1.2650768 -4.7683693E-7
vn -2.9630473E-7 -0.11291754 1.2967917E-7
vn -3.004311E-7 -0.75424504 3.4715777E-7
vn 0.95601195 0.048982263 -0.69097686
vn 0.75 0.0038624406 -0.6295488
vn 1.0841707 0.07987666 -0.375
vn 0.9320941 0.027949706 -0.40793538
vn 1.5 0.107519865 -0.0
vn 1.5259609 0.109380744 0.0
vn 1.0841707 0.038660534 0.375
vn 0.9320941 0.06916584 0.40793538
vn 0.74999976 0.041028455 0.6295486
vn 0.9560122 0.011816278 0.69097704
vn 0.5 0.0 -0.4196992
vn 0.72278047 0.0 -0.25
vn 1.0 0.0 -0.0
vn 0.72278047 0.0 0.25
vn 0.5 0.0 0.4196992
vn 0.74999976 -0.041028455 -0.6295486
vn 0.9560122 -0.011816278 -0.69097704
vn 0.9320941 -0.06916584 -0.40793538
vn 1.0841707 -0.038660534 -0.375
vn -3.004311E-7 0.75424504 -3.4715777E-7
vn 1.5259609 -0.109380744 0.0
vn 1.5 -0.107519865 0.0
vn 0.9320941 -0.027949706 0.40793538
vn 1.0841707 -0.07987666 0.375
vn -4.1263775E-9 1.2650768 4.7683693E-7
vn -2.9630473E-7 0.11291754 -1.2967917E-7
vn 0.95601195 -0.048982263 0.69097686
vn 0.75 -0.0038624406 0.6295488
f 1/1/1 2/1/1 3/1/1
f 3/1/2 4/1/2 1/1/2
f 2/1/3 5/1/3 6/1/3
f 6/1/4 3/1/4 2/1/4
f 5/1/5 7/1/5 8/1/5
f 8/1/6 6/1/6 5/1/6
f 4/1/7 3/1/7 9/1/7
f 9/1/7 10/1/7 4/1/7
f 3/1/8 6/1/8 11/1/8
f 11/1/8 9/1/8 3/1/8
f 6/1/9 8/1/9 12/1/9
f 12/1/9 11/1/9 6/1/9
f 10/1/7 9/1/7 13/1/7
f 13/1/7 14/1/7 10/1/7
f 9/1/8 11/1/8 15/1/8
f 15/1/8 13/1/8 9/1/8
f 11/1/9 12/1/9 16/1/9
f 16/1/9 15/1/9 11/1/9
f 14/1/7 13/1/7 17/1/7
f 17/1/7 18/1/7 14/1/7
f 13/1/8 15/1/8 19/1/8
f 19/1/8 17/1/8 13/1/8
f 15/1/9 16/1/9 20/1/9
f 20/1/9 19/1/9 15/1/9
f 18/1/10 17/1/10 21/1/10
f 21/1/11 22/1/11 18/1/11
f 17/1/12 19/1/12 23/1/12
f 23/1/13 21/1/13 17/1/13
f 19/1/14 20/1/14 24/1/14
f 24/1/15 23/1/15 19/1/15
f 25/1/16 2/1/16 1/1/16
f 1/1/17 26/1/17 25/1/17
f 27/1/18 5/1/18 2/1/18
f 2/1/19 25/1/19 27/1/19
f 28/1/20 7/1/20 5/1/20
f 5/1/21 27/1/21 28/1/21
f 29/1/22 26/1/22 30/1/22
f 30/1/23 31/1/23 29/1/23
f 26/1/24 1/1/24 4/1/24
f 4/1/25 30/1/25 26/1/25
f 32/1/26 8/1/26 7/1/26
f 7/1/27 28/1/27 32/1/27
f 28/1/28 33/1/28 34/1/28
f 34/1/29 32/1/29 28/1/29
f 31/1/30 30/1/30 35/1/30
f 35/1/30 36/1/30 31/1/30
f 30/1/31 4/1/31 10/1/31
f 10/1/31 35/1/31 30/1/31
f 37/1/32 12/1/32 8/1/32
f 8/1/32 32/1/32 37/1/32
f 32/1/33 34/1/33 38/1/33
f 38/1/33 37/1/33 32/1/33
f 36/1/30 35/1/30 39/1/30
f 39/1/30 40/1/30 36/1/30
f 35/1/31 10/1/31 14/1/31
f 14/1/31 39/1/31 35/1/31
f 41/1/32 16/1/32 12/1/32
f 12/1/32 37/1/32 41/1/32
f 37/1/33 38/1/33 42/1/33
f 42/1/33 41/1/33 37/1/33
f 40/1/30 39/1/30 43/1/30
f 43/1/30 44/1/30 40/1/30
f 39/1/31 14/1/31 18/1/31
f 18/1/31 43/1/31 39/1/31
f 45/1/32 20/1/32 16/1/32
f 16/1/32 41/1/32 45/1/32
f 41/1/33 42/1/33 46/1/33
f 46/1/33 45/1/33 41/1/33
f 44/1/34 43/1/34 47/1/34
f 47/1/35 48/1/35 44/1/35
f 43/1/36 18/1/36 22/1/36
f 22/1/37 47/1/37 43/1/37
f 47/1/38 22/1/38 21/1/38
f 21/1/39 49/1/39 47/1/39
f 49/1/40 21/1/40 23/1/40
f 23/1/41 50/1/41 49/1/41
f 50/1/42 23/1/42 24/1/42
f 24/1/43 51/1/43 50/1/43
f 51/1/44 24/1/44 20/1/44
f 20/1/45 45/1/45 51/1/45
f 45/1/46 46/1/46 52/1/46
f 52/1/47 51/1/47 45/1/47
f 53/1/48 26/1/48 29/1/48
f 29/1/16 54/1/16 53/1/16
f 55/1/49 25/1/49 26/1/49
f 26/1/50 53/1/50 55/1/50
f 56/1/51 27/1/51 25/1/51
f 25/1/51 55/1/51 56/1/51
f 57/1/52 28/1/52 27/1/52
f 27/1/51 56/1/51 57/1/51
f 58/1/53 33/1/53 28/1/53
f 28/1/54 57/1/54 58/1/54
f 54/1/55 29/1/55 31/1/55
f 31/1/56 59/1/56 54/1/56
f 60/1/57 34/1/57 33/1/57
f 33/1/58 58/1/58 60/1/58
f 59/1/59 31/1/59 36/1/59
f 36/1/59 61/1/59 59/1/59
f 62/1/60 38/1/60 34/1/60
f 34/1/60 60/1/60 62/1/60
f 61/1/59 36/1/59 40/1/59
f 40/1/59 63/1/59 61/1/59
f 64/1/60 42/1/60 38/1/60
f 38/1/60 62/1/60 64/1/60
f 63/1/59 40/1/59 44/1/59
f 44/1/59 65/1/59 63/1/59
f 66/1/60 46/1/60 42/1/60
f 42/1/60 64/1/60 66/1/60
f 65/1/61 44/1/61 48/1/61
f 48/1/62 67/1/62 65/1/62
f 67/1/63 48/1/63 47/1/63
f 47/1/64 68/1/64 67/1/64
f 68/1/65 47/1/65 49/1/65
f 49/1/66 69/1/66 68/1/66
f 69/1/66 49/1/66 50/1/66
f 50/1/66 70/1/66 69/1/66
f 70/1/67 50/1/67 51/1/67
f 51/1/68 71/1/68 70/1/68
f 71/1/69 51/1/69 52/1/69
f 52/1/42 72/1/42 71/1/42
f 72/1/70 52/1/70 46/1/70
f 46/1/71 66/1/71 72/1/71
f 73/1/19 53/1/19 54/1/19
f 54/1/18 74/1/18 73/1/18
f 75/1/51 55/1/51 53/1/51
f 53/1/51 73/1/51 75/1/51
f 76/1/51 56/1/51 55/1/51
f 55/1/51 75/1/51 76/1/51
f 77/1/51 57/1/51 56/1/51
f 56/1/51 76/1/51 77/1/51
f 78/1/18 58/1/18 57/1/18
f 57/1/19 77/1/19 78/1/19
f 74/1/72 54/1/72 59/1/72
f 59/1/73 79/1/73 74/1/73
f 80/1/74 60/1/74 58/1/74
f 58/1/75 78/1/75 80/1/75
f 79/1/76 59/1/76 61/1/76
f 61/1/76 81/1/76 79/1/76
f 82/1/77 62/1/77 60/1/77
f 60/1/77 80/1/77 82/1/77
f 81/1/76 61/1/76 63/1/76
f 63/1/76 83/1/76 81/1/76
f 84/1/77 64/1/77 62/1/77
f 62/1/77 82/1/77 84/1/77
f 83/1/76 63/1/76 65/1/76
f 65/1/76 85/1/76 83/1/76
f 86/1/77 66/1/77 64/1/77
f 64/1/77 84/1/77 86/1/77
f 85/1/78 65/1/78 67/1/78
f 67/1/79 87/1/79 85/1/79
f 87/1/40 67/1/40 68/1/40
f 68/1/41 88/1/41 87/1/41
f 88/1/66 68/1/66 69/1/66
f 69/1/66 89/1/66 88/1/66
f 89/1/66 69/1/66 70/1/66
f 70/1/66 90/1/66 89/1/66
f 90/1/66 70/1/66 71/1/66
f 71/1/66 91/1/66 90/1/66
f 91/1/41 71/1/41 72/1/41
f 72/1/40 92/1/40 91/1/40
f 92/1/80 72/1/80 66/1/80
f 66/1/81 86/1/81 92/1/81
f 93/1/82 73/1/82 74/1/82
f 74/1/83 94/1/83 93/1/83
f 95/1/51 75/1/51 73/1/51
f 73/1/84 93/1/84 95/1/84
f 96/1/51 76/1/51 75/1/51
f 75/1/51 95/1/51 96/1/51
f 97/1/85 77/1/85 76/1/85
f 76/1/86 96/1/86 97/1/86
f 98/1/16 78/1/16 77/1/16
f 77/1/87 97/1/87 98/1/87
f 94/1/88 74/1/88 79/1/88
f 79/1/89 99/1/89 94/1/89
f 99/1/90 100/1/90 93/1/90
f 93/1/91 94/1/91 99/1/91
f 101/1/92 102/1/92 98/1/92
f 98/1/93 97/1/93 101/1/93
f 102/1/94 80/1/94 78/1/94
f 78/1/95 98/1/95 102/1/95
f 99/1/96 79/1/96 81/1/96
f 81/1/96 103/1/96 99/1/96
f 103/1/97 104/1/97 100/1/97
f 100/1/97 99/1/97 103/1/97
f 105/1/98 106/1/98 102/1/98
f 102/1/98 101/1/98 105/1/98
f 106/1/99 82/1/99 80/1/99
f 80/1/99 102/1/99 106/1/99
f 103/1/96 81/1/96 83/1/96
f 83/1/96 107/1/96 103/1/96
f 107/1/97 108/1/97 104/1/97
f 104/1/97 103/1/97 107/1/97
f 109/1/98 110/1/98 106/1/98
f 106/1/98 105/1/98 109/1/98
f 110/1/99 84/1/99 82/1/99
f 82/1/99 106/1/99 110/1/99
f 107/1/96 83/1/96 85/1/96
f 85/1/96 111/1/96 107/1/96
f 111/1/97 112/1/97 108/1/97
f 108/1/97 107/1/97 111/1/97
f 113/1/98 114/1/98 110/1/98
f 110/1/98 109/1/98 113/1/98
f 114/1/99 86/1/99 84/1/99
f 84/1/99 110/1/99 114/1/99
f 111/1/100 85/1/100 87/1/100
f 87/1/101 115/1/101 111/1/101
f 115/1/102 116/1/102 112/1/102
f 112/1/103 111/1/103 115/1/103
f 115/1/42 87/1/42 88/1/42
f 88/1/104 116/1/104 115/1/104
f 116/1/105 88/1/105 89/1/105
f 89/1/106 117/1/106 116/1/106
f 117/1/66 89/1/66 90/1/66
f 90/1/66 118/1/66 117/1/66
f 118/1/66 90/1/66 91/1/66
f 91/1/107 119/1/107 118/1/107
f 119/1/108 120/1/108 114/1/108
f 114/1/109 113/1/109 119/1/109
f 119/1/110 91/1/110 92/1/110
f 92/1/111 120/1/111 119/1/111
f 120/1/112 92/1/112 86/1/112
f 86/1/113 114/1/113 120/1/113
f 121/1/114 95/1/114 93/1/114
f 93/1/115 122/1/115 121/1/115
f 123/1/19 96/1/19 95/1/19
f 95/1/18 121/1/18 123/1/18
f 124/1/116 97/1/116 96/1/116
f 96/1/16 123/1/16 124/1/16
f 122/1/117 93/1/117 100/1/117
f 100/1/118 125/1/118 122/1/118
f 125/1/119 126/1/119 121/1/119
f 121/1/120 122/1/120 125/1/120
f 126/1/121 127/1/121 123/1/121
f 123/1/122 121/1/122 126/1/122
f 127/1/123 128/1/123 124/1/123
f 124/1/124 123/1/124 127/1/124
f 128/1/125 101/1/125 97/1/125
f 97/1/126 124/1/126 128/1/126
f 125/1/127 100/1/127 104/1/127
f 104/1/127 129/1/127 125/1/127
f 129/1/128 130/1/128 126/1/128
f 126/1/128 125/1/128 129/1/128
f 130/1/129 131/1/129 127/1/129
f 127/1/129 126/1/129 130/1/129
f 131/1/130 132/1/130 128/1/130
f 128/1/130 127/1/130 131/1/130
f 132/1/131 105/1/131 101/1/131
f 101/1/131 128/1/131 132/1/131
f 129/1/127 104/1/127 108/1/127
f 108/1/127 133/1/127 129/1/127
f 133/1/128 134/1/128 130/1/128
f 130/1/128 129/1/128 133/1/128
f 134/1/129 135/1/129 131/1/129
f 131/1/129 130/1/129 134/1/129
f 135/1/130 136/1/130 132/1/130
f 132/1/130 131/1/130 135/1/130
f 136/1/131 109/1/131 105/1/131
f 105/1/131 132/1/131 136/1/131
f 133/1/127 108/1/127 112/1/127
f 112/1/127 137/1/127 133/1/127
f 137/1/128 138/1/128 134/1/128
f 134/1/128 133/1/128 137/1/128
f 138/1/129 139/1/129 135/1/129
f 135/1/129 134/1/129 138/1/129
f 139/1/130 140/1/130 136/1/130
f 136/1/130 135/1/130 139/1/130
f 140/1/131 113/1/131 109/1/131
f 109/1/131 136/1/131 140/1/131
f 137/1/132 112/1/132 116/1/132
f 116/1/133 141/1/133 137/1/133
f 141/1/134 142/1/134 138/1/134
f 138/1/135 137/1/135 141/1/135
f 141/1/136 116/1/136 117/1/136
f 117/1/42 142/1/42 141/1/42
f 142/1/137 143/1/137 139/1/137
f 139/1/138 138/1/138 142/1/138
f 142/1/41 117/1/41 118/1/41
f 118/1/40 143/1/40 142/1/40
f 143/1/139 144/1/139 140/1/139
f 140/1/140 139/1/140 143/1/140
f 143/1/141 118/1/141 119/1/141
f 119/1/142 144/1/142 143/1/142
f 144/1/143 119/1/143 113/1/143
f 113/1/144 140/1/144 144/1/144
