v -2.5 -2.5 -2.5
v -2.5 -2.5 -1.5
v -2.5 -1.5 -1.5
v -2.5 -1.5 -2.5
v -2.5 -2.5 -0.5
v -2.5 -1.5 -0.5
v -2.5 -2.5 0.5
v -2.5 -1.5 0.5
v -2.5 -2.5 1.5
v -2.5 -1.5 1.5
v -2.5 -2.5 2.5
v -2.5 -1.5 2.5
v -2.5 -0.5 -1.5
v -2.5 -0.5 -2.5
v -2.5 -0.5 -0.5
v -2.5 -0.5 0.5
v -2.5 -0.5 1.5
v -2.5 -0.5 2.5
v -2.5 0.5 -1.5
v -2.5 0.5 -2.5
v -2.5 0.5 -0.5
v -2.5 0.5 0.5
v -2.5 0.5 1.5
v -2.5 0.5 2.5
v -2.5 1.5 -1.5
v -2.5 1.5 -2.5
v -2.5 1.5 -0.5
v -2.5 1.5 0.5
v -2.5 1.5 1.5
v -2.5 1.5 2.5
v -2.5 2.5 -1.5
v -2.5 2.5 -2.5
v -2.5 2.5 -0.5
v -2.5 2.5 0.5
v -2.5 2.5 1.5
v -2.5 2.5 2.5
v -1.5 -2.5 -1.5
v -1.5 -2.5 -2.5
v -1.5 -2.5 -0.5
v -1.5 -2.5 0.5
v -1.5 -2.5 1.5
v -1.5 -2.5 2.5
v -1.5 -1.5 -2.5
v -1.5 -1.5 2.5
v -1.5 -0.5 -2.5
v -1.5 -0.5 2.5
v -1.5 0.5 -2.5
v -1.5 0.5 2.5
v -1.5 1.5 -2.5
v -1.5 1.5 2.5
v -1.5 2.5 -2.5
v -1.5 2.5 -1.5
v -1.5 2.5 -0.5
v -1.5 2.5 0.5
v -1.5 2.5 1.5
v -1.5 2.5 2.5
v -0.5 -2.5 -1.5
v -0.5 -2.5 -2.5
v -0.5 -2.5 -0.5
v -0.5 -2.5 0.5
v -0.5 -2.5 1.5
v -0.5 -2.5 2.5
v -0.5 -1.5 -2.5
v -0.5 -1.5 2.5
v -0.5 -0.5 -2.5
v -0.5 -0.5 2.5
v -0.5 0.5 -2.5
v -0.5 0.5 2.5
v -0.5 1.5 -2.5
v -0.5 1.5 2.5
v -0.5 2.5 -2.5
v -0.5 2.5 -1.5
v -0.5 2.5 -0.5
v -0.5 2.5 0.5
v -0.5 2.5 1.5
v -0.5 2.5 2.5
v 0.5 -2.5 -1.5
v 0.5 -2.5 -2.5
v 0.5 -2.5 -0.5
v 0.5 -2.5 0.5
v 0.5 -2.5 1.5
v 0.5 -2.5 2.5
v 0.5 -1.5 -2.5
v 0.5 -1.5 2.5
v 0.5 -0.5 -2.5
v 0.5 -0.5 2.5
v 0.5 0.5 -2.5
v 0.5 0.5 2.5
v 0.5 1.5 -2.5
v 0.5 1.5 2.5
v 0.5 2.5 -2.5
v 0.5 2.5 -1.5
v 0.5 2.5 -0.5
v 0.5 2.5 0.5
v 0.5 2.5 1.5
v 0.5 2.5 2.5
v 1.5 -2.5 -1.5
v 1.5 -2.5 -2.5
v 1.5 -2.5 -0.5
v 1.5 -2.5 0.5
v 1.5 -2.5 1.5
v 1.5 -2.5 2.5
v 1.5 -1.5 -2.5
v 1.5 -1.5 2.5
v 1.5 -0.5 -2.5
v 1.5 -0.5 2.5
v 1.5 0.5 -2.5
v 1.5 0.5 2.5
v 1.5 1.5 -2.5
v 1.5 1.5 2.5
v 1.5 2.5 -2.5
v 1.5 2.5 -1.5
v 1.5 2.5 -0.5
v 1.5 2.5 0.5
v 1.5 2.5 1.5
v 1.5 2.5 2.5
v 2.5 -2.5 -1.5
v 2.5 -2.5 -2.5
v 2.5 -2.5 -0.5
v 2.5 -2.5 0.5
v 2.5 -2.5 1.5
v 2.5 -2.5 2.5
v 2.5 -1.5 -2.5
v 2.5 -1.5 -1.5
v 2.5 -1.5 -0.5
v 2.5 -1.5 0.5
v 2.5 -1.5 1.5
v 2.5 -1.5 2.5
v 2.5 -0.5 -2.5
v 2.5 -0.5 -1.5
v 2.5 -0.5 -0.5
v 2.5 -0.5 0.5
v 2.5 -0.5 1.5
v 2.5 -0.5 2.5
v 2.5 0.5 -2.5
v 2.5 0.5 -1.5
v 2.5 0.5 -0.5
v 2.5 0.5 0.5
v 2.5 0.5 1.5
v 2.5 0.5 2.5
v 2.5 1.5 -2.5
v 2.5 1.5 -1.5
v 2.5 1.5 -0.5
v 2.5 1.5 0.5
v 2.5 1.5 1.5
v 2.5 1.5 2.5
v 2.5 2.5 -2.5
v 2.5 2.5 -1.5
v 2.5 2.5 -0.5
v 2.5 2.5 0.5
v 2.5 2.5 1.5
v 2.5 2.5 2.5
vt 0.0 0.0
vn -1.0 0.0 0.0
vn -0.0 -1.0 0.0
vn 0.0 0.0 -1.0
vn 0.0 0.0 1.0
vn 0.0 1.0 0.0
vn 1.0 0.0 -0.0
f 1/1/1 2/1/1 3/1/1
f 3/1/1 4/1/1 1/1/1
f 2/1/1 5/1/1 6/1/1
f 6/1/1 3/1/1 2/1/1
f 5/1/1 7/1/1 8/1/1
f 8/1/1 6/1/1 5/1/1
f 7/1/1 9/1/1 10/1/1
f 10/1/1 8/1/1 7/1/1
f 9/1/1 11/1/1 12/1/1
f 12/1/1 10/1/1 9/1/1
f 4/1/1 3/1/1 13/1/1
f 13/1/1 14/1/1 4/1/1
f 3/1/1 6/1/1 15/1/1
f 15/1/1 13/1/1 3/1/1
f 6/1/1 8/1/1 16/1/1
f 16/1/1 15/1/1 6/1/1
f 8/1/1 10/1/1 17/1/1
f 17/1/1 16/1/1 8/1/1
f 10/1/1 12/1/1 18/1/1
f 18/1/1 17/1/1 10/1/1
f 14/1/1 13/1/1 19/1/1
f 19/1/1 20/1/1 14/1/1
f 13/1/1 15/1/1 21/1/1
f 21/1/1 19/1/1 13/1/1
f 15/1/1 16/1/1 22/1/1
f 22/1/1 21/1/1 15/1/1
f 16/1/1 17/1/1 23/1/1
f 23/1/1 22/1/1 16/1/1
f 17/1/1 18/1/1 24/1/1
f 24/1/1 23/1/1 17/1/1
f 20/1/1 19/1/1 25/1/1
f 25/1/1 26/1/1 20/1/1
f 19/1/1 21/1/1 27/1/1
f 27/1/1 25/1/1 19/1/1
f 21/1/1 22/1/1 28/1/1
f 28/1/1 27/1/1 21/1/1
f 22/1/1 23/1/1 29/1/1
f 29/1/1 28/1/1 22/1/1
f 23/1/1 24/1/1 30/1/1
f 30/1/1 29/1/1 23/1/1
f 26/1/1 25/1/1 31/1/1
f 31/1/1 32/1/1 26/1/1
f 25/1/1 27/1/1 33/1/1
f 33/1/1 31/1/1 25/1/1
f 27/1/1 28/1/1 34/1/1
f 34/1/1 33/1/1 27/1/1
f 28/1/1 29/1/1 35/1/1
f 35/1/1 34/1/1 28/1/1
f 29/1/1 30/1/1 36/1/1
f 36/1/1 35/1/1 29/1/1
f 37/1/2 2/1/2 1/1/2
f 1/1/2 38/1/2 37/1/2
f 39/1/2 5/1/2 2/1/2
f 2/1/2 37/1/2 39/1/2
f 40/1/2 7/1/2 5/1/2
f 5/1/2 39/1/2 40/1/2
f 41/1/2 9/1/2 7/1/2
f 7/1/2 40/1/2 41/1/2
f 42/1/2 11/1/2 9/1/2
f 9/1/2 41/1/2 42/1/2
f 38/1/3 1/1/3 4/1/3
f 4/1/3 43/1/3 38/1/3
f 44/1/4 12/1/4 11/1/4
f 11/1/4 42/1/4 44/1/4
f 43/1/3 4/1/3 14/1/3
f 14/1/3 45/1/3 43/1/3
f 46/1/4 18/1/4 12/1/4
f 12/1/4 44/1/4 46/1/4
f 45/1/3 14/1/3 20/1/3
f 20/1/3 47/1/3 45/1/3
f 48/1/4 24/1/4 18/1/4
f 18/1/4 46/1/4 48/1/4
f 47/1/3 20/1/3 26/1/3
f 26/1/3 49/1/3 47/1/3
f 50/1/4 30/1/4 24/1/4
f 24/1/4 48/1/4 50/1/4
f 49/1/3 26/1/3 32/1/3
f 32/1/3 51/1/3 49/1/3
f 51/1/5 32/1/5 31/1/5
f 31/1/5 52/1/5 51/1/5
f 52/1/5 31/1/5 33/1/5
f 33/1/5 53/1/5 52/1/5
f 53/1/5 33/1/5 34/1/5
f 34/1/5 54/1/5 53/1/5
f 54/1/5 34/1/5 35/1/5
f 35/1/5 55/1/5 54/1/5
f 55/1/5 35/1/5 36/1/5
f 36/1/5 56/1/5 55/1/5
f 56/1/4 36/1/4 30/1/4
f 30/1/4 50/1/4 56/1/4
f 57/1/2 37/1/2 38/1/2
f 38/1/2 58/1/2 57/1/2
f 59/1/2 39/1/2 37/1/2
f 37/1/2 57/1/2 59/1/2
f 60/1/2 40/1/2 39/1/2
f 39/1/2 59/1/2 60/1/2
f 61/1/2 41/1/2 40/1/2
f 40/1/2 60/1/2 61/1/2
f 62/1/2 42/1/2 41/1/2
f 41/1/2 61/1/2 62/1/2
f 58/1/3 38/1/3 43/1/3
f 43/1/3 63/1/3 58/1/3
f 64/1/4 44/1/4 42/1/4
f 42/1/4 62/1/4 64/1/4
f 63/1/3 43/1/3 45/1/3
f 45/1/3 65/1/3 63/1/3
f 66/1/4 46/1/4 44/1/4
f 44/1/4 64/1/4 66/1/4
f 65/1/3 45/1/3 47/1/3
f 47/1/3 67/1/3 65/1/3
f 68/1/4 48/1/4 46/1/4
f 46/1/4 66/1/4 68/1/4
f 67/1/3 47/1/3 49/1/3
f 49/1/3 69/1/3 67/1/3
f 70/1/4 50/1/4 48/1/4
f 48/1/4 68/1/4 70/1/4
f 69/1/3 49/1/3 51/1/3
f 51/1/3 71/1/3 69/1/3
f 71/1/5 51/1/5 52/1/5
f 52/1/5 72/1/5 71/1/5
f 72/1/5 52/1/5 53/1/5
f 53/1/5 73/1/5 72/1/5
f 73/1/5 53/1/5 54/1/5
f 54/1/5 74/1/5 73/1/5
f 74/1/5 54/1/5 55/1/5
f 55/1/5 75/1/5 74/1/5
f 75/1/5 55/1/5 56/1/5
f 56/1/5 76/1/5 75/1/5
f 76/1/4 56/1/4 50/1/4
f 50/1/4 70/1/4 76/1/4
f 77/1/2 57/1/2 58/1/2
f 58/1/2 78/1/2 77/1/2
f 79/1/2 59/1/2 57/1/2
f 57/1/2 77/1/2 79/1/2
f 80/1/2 60/1/2 59/1/2
f 59/1/2 79/1/2 80/1/2
f 81/1/2 61/1/2 60/1/2
f 60/1/2 80/1/2 81/1/2
f 82/1/2 62/1/2 61/1/2
f 61/1/2 81/1/2 82/1/2
f 78/1/3 58/1/3 63/1/3
f 63/1/3 83/1/3 78/1/3
f 84/1/4 64/1/4 62/1/4
f 62/1/4 82/1/4 84/1/4
f 83/1/3 63/1/3 65/1/3
f 65/1/3 85/1/3 83/1/3
f 86/1/4 66/1/4 64/1/4
f 64/1/4 84/1/4 86/1/4
f 85/1/3 65/1/3 67/1/3
f 67/1/3 87/1/3 85/1/3
f 88/1/4 68/1/4 66/1/4
f 66/1/4 86/1/4 88/1/4
f 87/1/3 67/1/3 69/1/3
f 69/1/3 89/1/3 87/1/3
f 90/1/4 70/1/4 68/1/4
f 68/1/4 88/1/4 90/1/4
f 89/1/3 69/1/3 71/1/3
f 71/1/3 91/1/3 89/1/3
f 91/1/5 71/1/5 72/1/5
f 72/1/5 92/1/5 91/1/5
f 92/1/5 72/1/5 73/1/5
f 73/1/5 93/1/5 92/1/5
f 93/1/5 73/1/5 74/1/5
f 74/1/5 94/1/5 93/1/5
f 94/1/5 74/1/5 75/1/5
f 75/1/5 95/1/5 94/1/5
f 95/1/5 75/1/5 76/1/5
f 76/1/5 96/1/5 95/1/5
f 96/1/4 76/1/4 70/1/4
f 70/1/4 90/1/4 96/1/4
f 97/1/2 77/1/2 78/1/2
f 78/1/2 98/1/2 97/1/2
f 99/1/2 79/1/2 77/1/2
f 77/1/2 97/1/2 99/1/2
f 100/1/2 80/1/2 79/1/2
f 79/1/2 99/1/2 100/1/2
f 101/1/2 81/1/2 80/1/2
f 80/1/2 100/1/2 101/1/2
f 102/1/2 82/1/2 81/1/2
f 81/1/2 101/1/2 102/1/2
f 98/1/3 78/1/3 83/1/3
f 83/1/3 103/1/3 98/1/3
f 104/1/4 84/1/4 82/1/4
f 82/1/4 102/1/4 104/1/4
f 103/1/3 83/1/3 85/1/3
f 85/1/3 105/1/3 103/1/3
f 106/1/4 86/1/4 84/1/4
f 84/1/4 104/1/4 106/1/4
f 105/1/3 85/1/3 87/1/3
f 87/1/3 107/1/3 105/1/3
f 108/1/4 88/1/4 86/1/4
f 86/1/4 106/1/4 108/1/4
f 107/1/3 87/1/3 89/1/3
f 89/1/3 109/1/3 107/1/3
f 110/1/4 90/1/4 88/1/4
f 88/1/4 108/1/4 110/1/4
f 109/1/3 89/1/3 91/1/3
f 91/1/3 111/1/3 109/1/3
f 111/1/5 91/1/5 92/1/5
f 92/1/5 112/1/5 111/1/5
f 112/1/5 92/1/5 93/1/5
f 93/1/5 113/1/5 112/1/5
f 113/1/5 93/1/5 94/1/5
f 94/1/5 114/1/5 113/1/5
f 114/1/5 94/1/5 95/1/5
f 95/1/5 115/1/5 114/1/5
f 115/1/5 95/1/5 96/1/5
f 96/1/5 116/1/5 115/1/5
f 116/1/4 96/1/4 90/1/4
f 90/1/4 110/1/4 116/1/4
f 117/1/2 97/1/2 98/1/2
f 98/1/2 118/1/2 117/1/2
f 119/1/2 99/1/2 97/1/2
f 97/1/2 117/1/2 119/1/2
f 120/1/2 100/1/2 99/1/2
f 99/1/2 119/1/2 120/1/2
f 121/1/2 101/1/2 100/1/2
f 100/1/2 120/1/2 121/1/2
f 122/1/2 102/1/2 101/1/2
f 101/1/2 121/1/2 122/1/2
f 118/1/3 98/1/3 103/1/3
f 103/1/3 123/1/3 118/1/3
f 123/1/6 124/1/6 117/1/6
f 117/1/6 118/1/6 123/1/6
f 124/1/6 125/1/6 119/1/6
f 119/1/6 117/1/6 124/1/6
f 125/1/6 126/1/6 120/1/6
f 120/1/6 119/1/6 125/1/6
f 126/1/6 127/1/6 121/1/6
f 121/1/6 120/1/6 126/1/6
f 127/1/6 128/1/6 122/1/6
f 122/1/6 121/1/6 127/1/6
f 128/1/4 104/1/4 102/1/4
f 102/1/4 122/1/4 128/1/4
f 123/1/3 103/1/3 105/1/3
f 105/1/3 129/1/3 123/1/3
f 129/1/6 130/1/6 124/1/6
f 124/1/6 123/1/6 129/1/6
f 130/1/6 131/1/6 125/1/6
f 125/1/6 124/1/6 130/1/6
f 131/1/6 132/1/6 126/1/6
f 126/1/6 125/1/6 131/1/6
f 132/1/6 133/1/6 127/1/6
f 127/1/6 126/1/6 132/1/6
f 133/1/6 134/1/6 128/1/6
f 128/1/6 127/1/6 133/1/6
f 134/1/4 106/1/4 104/1/4
f 104/1/4 128/1/4 134/1/4
f 129/1/3 105/1/3 107/1/3
f 107/1/3 135/1/3 129/1/3
f 135/1/6 136/1/6 130/1/6
f 130/1/6 129/1/6 135/1/6
f 136/1/6 137/1/6 131/1/6
f 131/1/6 130/1/6 136/1/6
f 137/1/6 138/1/6 132/1/6
f 132/1/6 131/1/6 137/1/6
f 138/1/6 139/1/6 133/1/6
f 133/1/6 132/1/6 138/1/6
f 139/1/6 140/1/6 134/1/6
f 134/1/6 133/1/6 139/1/6
f 140/1/4 108/1/4 106/1/4
f 106/1/4 134/1/4 140/1/4
f 135/1/3 107/1/3 109/1/3
f 109/1/3 141/1/3 135/1/3
f 141/1/6 142/1/6 136/1/6
f 136/1/6 135/1/6 141/1/6
f 142/1/6 143/1/6 137/1/6
f 137/1/6 136/1/6 142/1/6
f 143/1/6 144/1/6 138/1/6
f 138/1/6 137/1/6 143/1/6
f 144/1/6 145/1/6 139/1/6
f 139/1/6 138/1/6 144/1/6
f 145/1/6 146/1/6 140/1/6
f 140/1/6 139/1/6 145/1/6
f 146/1/4 110/1/4 108/1/4
f 108/1/4 140/1/4 146/1/4
f 141/1/3 109/1/3 111/1/3
f 111/1/3 147/1/3 141/1/3
f 147/1/6 148/1/6 142/1/6
f 142/1/6 141/1/6 147/1/6
f 147/1/5 111/1/5 112/1/5
f 112/1/5 148/1/5 147/1/5
f 148/1/6 149/1/6 143/1/6
f 143/1/6 142/1/6 148/1/6
f 148/1/5 112/1/5 113/1/5
f 113/1/5 149/1/5 148/1/5
f 149/1/6 150/1/6 144/1/6
f 144/1/6 143/1/6 149/1/6
f 149/1/5 113/1/5 114/1/5
f 114/1/5 150/1/5 149/1/5
f 150/1/6 151/1/6 145/1/6
f 145/1/6 144/1/6 150/1/6
f 150/1/5 114/1/5 115/1/5
f 115/1/5 151/1/5 150/1/5
f 151/1/6 152/1/6 146/1/6
f 146/1/6 145/1/6 151/1/6
f 151/1/5 115/1/5 116/1/5
f 116/1/5 152/1/5 151/1/5
f 152/1/4 116/1/4 110/1/4
f 110/1/4 146/1/4 152/1/4
