v -2.5 -1.5 -1.5
v -2.5 -1.5 -0.5
v -2.5 -0.5 -0.5
v -2.5 -0.5 -1.5
v -2.5 -1.5 0.5
v -2.5 -0.5 0.5
v -2.5 -1.5 1.5
v -2.5 -0.5 1.5
v -2.5 0.5 -0.5
v -2.5 0.5 -1.5
v -2.5 0.5 0.5
v -2.5 0.5 1.5
v -2.5 1.5 -0.5
v -2.5 1.5 -1.5
v -2.5 1.5 0.5
v -2.5 1.5 1.5
v -1.5 -2.5 -1.5
v -1.5 -2.5 -0.5
v -1.5 -1.5 -0.5
v -1.5 -1.5 -1.5
v -1.5 -2.5 0.5
v -1.5 -1.5 0.5
v -1.5 -2.5 1.5
v -1.5 -1.5 1.5
v -1.5 -1.5 -2.5
v -1.5 -0.5 -1.5
v -1.5 -0.5 -2.5
v -1.5 -0.5 1.5
v -1.5 -1.5 2.5
v -1.5 -0.5 2.5
v -1.5 0.5 -1.5
v -1.5 0.5 -2.5
v -1.5 0.5 1.5
v -1.5 0.5 2.5
v -1.5 1.5 -1.5
v -1.5 1.5 -2.5
v -1.5 1.5 -0.5
v -1.5 1.5 0.5
v -1.5 1.5 1.5
v -1.5 1.5 2.5
v -1.5 2.5 -0.5
v -1.5 2.5 -1.5
v -1.5 2.5 0.5
v -1.5 2.5 1.5
v -0.5 -2.5 -0.5
v -0.5 -2.5 -1.5
v -0.5 -2.5 0.5
v -0.5 -2.5 1.5
v -0.5 -1.5 -1.5
v -0.5 -1.5 -2.5
v -0.5 -1.5 1.5
v -0.5 -1.5 2.5
v -0.5 -0.5 -2.5
v -0.5 -0.5 2.5
v -0.5 0.5 -2.5
v -0.5 0.5 2.5
v -0.5 1.5 -2.5
v -0.5 1.5 -1.5
v -0.5 1.5 1.5
v -0.5 1.5 2.5
v -0.5 2.5 -1.5
v -0.5 2.5 -0.5
v -0.5 2.5 0.5
v -0.5 2.5 1.5
v 0.5 -2.5 -0.5
v 0.5 -2.5 -1.5
v 0.5 -2.5 0.5
v 0.5 -2.5 1.5
v 0.5 -1.5 -1.5
v 0.5 -1.5 -2.5
v 0.5 -1.5 1.5
v 0.5 -1.5 2.5
v 0.5 -0.5 -2.5
v 0.5 -0.5 2.5
v 0.5 0.5 -2.5
v 0.5 0.5 2.5
v 0.5 1.5 -2.5
v 0.5 1.5 -1.5
v 0.5 1.5 1.5
v 0.5 1.5 2.5
v 0.5 2.5 -1.5
v 0.5 2.5 -0.5
v 0.5 2.5 0.5
v 0.5 2.5 1.5
v 1.5 -2.5 -0.5
v 1.5 -2.5 -1.5
v 1.5 -2.5 0.5
v 1.5 -2.5 1.5
v 1.5 -1.5 -1.5
v 1.5 -1.5 -2.5
v 1.5 -1.5 -0.5
v 1.5 -1.5 0.5
v 1.5 -1.5 1.5
v 1.5 -1.5 2.5
v 1.5 -0.5 -2.5
v 1.5 -0.5 -1.5
v 1.5 -0.5 1.5
v 1.5 -0.5 2.5
v 1.5 0.5 -2.5
v 1.5 0.5 -1.5
v 1.5 0.5 1.5
v 1.5 0.5 2.5
v 1.5 1.5 -2.5
v 1.5 1.5 -1.5
v 1.5 1.5 1.5
v 1.5 1.5 2.5
v 1.5 2.5 -1.5
v 1.5 2.5 -0.5
v 1.5 1.5 -0.5
v 1.5 2.5 0.5
v 1.5 1.5 0.5
v 1.5 2.5 1.5
v 2.5 -1.5 -0.5
v 2.5 -1.5 -1.5
v 2.5 -1.5 0.5
v 2.5 -1.5 1.5
v 2.5 -0.5 -1.5
v 2.5 -0.5 -0.5
v 2.5 -0.5 0.5
v 2.5 -0.5 1.5
v 2.5 0.5 -1.5
v 2.5 0.5 -0.5
v 2.5 0.5 0.5
v 2.5 0.5 1.5
v 2.5 1.5 -1.5
v 2.5 1.5 -0.5
v 2.5 1.5 0.5
v 2.5 1.5 1.5
vt 0.0 0.0
vn -1.0 0.0 0.0
vn -0.0 -1.0 0.0
vn 0.0 0.0 -1.0
vn 0.0 0.0 1.0
vn 0.0 1.0 0.0
vn 1.0 0.0 -0.0
f 1/1/1 2/1/1 3/1/1
f 3/1/1 4/1/1 1/1/1
f 2/1/1 5/1/1 6/1/1
f 6/1/1 3/1/1 2/1/1
f 5/1/1 7/1/1 8/1/1
f 8/1/1 6/1/1 5/1/1
f 4/1/1 3/1/1 9/1/1
f 9/1/1 10/1/1 4/1/1
f 3/1/1 6/1/1 11/1/1
f 11/1/1 9/1/1 3/1/1
f 6/1/1 8/1/1 12/1/1
f 12/1/1 11/1/1 6/1/1
f 10/1/1 9/1/1 13/1/1
f 13/1/1 14/1/1 10/1/1
f 9/1/1 11/1/1 15/1/1
f 15/1/1 13/1/1 9/1/1
f 11/1/1 12/1/1 16/1/1
f 16/1/1 15/1/1 11/1/1
f 17/1/1 18/1/1 19/1/1
f 19/1/1 20/1/1 17/1/1
f 19/1/2 2/1/2 1/1/2
f 1/1/2 20/1/2 19/1/2
f 18/1/1 21/1/1 22/1/1
f 22/1/1 19/1/1 18/1/1
f 22/1/2 5/1/2 2/1/2
f 2/1/2 19/1/2 22/1/2
f 21/1/1 23/1/1 24/1/1
f 24/1/1 22/1/1 21/1/1
f 24/1/2 7/1/2 5/1/2
f 5/1/2 22/1/2 24/1/2
f 25/1/1 20/1/1 26/1/1
f 26/1/1 27/1/1 25/1/1
f 20/1/3 1/1/3 4/1/3
f 4/1/3 26/1/3 20/1/3
f 28/1/4 8/1/4 7/1/4
f 7/1/4 24/1/4 28/1/4
f 24/1/1 29/1/1 30/1/1
f 30/1/1 28/1/1 24/1/1
f 27/1/1 26/1/1 31/1/1
f 31/1/1 32/1/1 27/1/1
f 26/1/3 4/1/3 10/1/3
f 10/1/3 31/1/3 26/1/3
f 33/1/4 12/1/4 8/1/4
f 8/1/4 28/1/4 33/1/4
f 28/1/1 30/1/1 34/1/1
f 34/1/1 33/1/1 28/1/1
f 32/1/1 31/1/1 35/1/1
f 35/1/1 36/1/1 32/1/1
f 31/1/3 10/1/3 14/1/3
f 14/1/3 35/1/3 31/1/3
f 35/1/5 14/1/5 13/1/5
f 13/1/5 37/1/5 35/1/5
f 37/1/5 13/1/5 15/1/5
f 15/1/5 38/1/5 37/1/5
f 38/1/5 15/1/5 16/1/5
f 16/1/5 39/1/5 38/1/5
f 39/1/4 16/1/4 12/1/4
f 12/1/4 33/1/4 39/1/4
f 33/1/1 34/1/1 40/1/1
f 40/1/1 39/1/1 33/1/1
f 35/1/1 37/1/1 41/1/1
f 41/1/1 42/1/1 35/1/1
f 37/1/1 38/1/1 43/1/1
f 43/1/1 41/1/1 37/1/1
f 38/1/1 39/1/1 44/1/1
f 44/1/1 43/1/1 38/1/1
f 45/1/2 18/1/2 17/1/2
f 17/1/2 46/1/2 45/1/2
f 47/1/2 21/1/2 18/1/2
f 18/1/2 45/1/2 47/1/2
f 48/1/2 23/1/2 21/1/2
f 21/1/2 47/1/2 48/1/2
f 49/1/2 20/1/2 25/1/2
f 25/1/2 50/1/2 49/1/2
f 46/1/3 17/1/3 20/1/3
f 20/1/3 49/1/3 46/1/3
f 51/1/4 24/1/4 23/1/4
f 23/1/4 48/1/4 51/1/4
f 52/1/2 29/1/2 24/1/2
f 24/1/2 51/1/2 52/1/2
f 50/1/3 25/1/3 27/1/3
f 27/1/3 53/1/3 50/1/3
f 54/1/4 30/1/4 29/1/4
f 29/1/4 52/1/4 54/1/4
f 53/1/3 27/1/3 32/1/3
f 32/1/3 55/1/3 53/1/3
f 56/1/4 34/1/4 30/1/4
f 30/1/4 54/1/4 56/1/4
f 55/1/3 32/1/3 36/1/3
f 36/1/3 57/1/3 55/1/3
f 57/1/5 36/1/5 35/1/5
f 35/1/5 58/1/5 57/1/5
f 59/1/5 39/1/5 40/1/5
f 40/1/5 60/1/5 59/1/5
f 60/1/4 40/1/4 34/1/4
f 34/1/4 56/1/4 60/1/4
f 58/1/3 35/1/3 42/1/3
f 42/1/3 61/1/3 58/1/3
f 61/1/5 42/1/5 41/1/5
f 41/1/5 62/1/5 61/1/5
f 62/1/5 41/1/5 43/1/5
f 43/1/5 63/1/5 62/1/5
f 63/1/5 43/1/5 44/1/5
f 44/1/5 64/1/5 63/1/5
f 64/1/4 44/1/4 39/1/4
f 39/1/4 59/1/4 64/1/4
f 65/1/2 45/1/2 46/1/2
f 46/1/2 66/1/2 65/1/2
f 67/1/2 47/1/2 45/1/2
f 45/1/2 65/1/2 67/1/2
f 68/1/2 48/1/2 47/1/2
f 47/1/2 67/1/2 68/1/2
f 69/1/2 49/1/2 50/1/2
f 50/1/2 70/1/2 69/1/2
f 66/1/3 46/1/3 49/1/3
f 49/1/3 69/1/3 66/1/3
f 71/1/4 51/1/4 48/1/4
f 48/1/4 68/1/4 71/1/4
f 72/1/2 52/1/2 51/1/2
f 51/1/2 71/1/2 72/1/2
f 70/1/3 50/1/3 53/1/3
f 53/1/3 73/1/3 70/1/3
f 74/1/4 54/1/4 52/1/4
f 52/1/4 72/1/4 74/1/4
f 73/1/3 53/1/3 55/1/3
f 55/1/3 75/1/3 73/1/3
f 76/1/4 56/1/4 54/1/4
f 54/1/4 74/1/4 76/1/4
f 75/1/3 55/1/3 57/1/3
f 57/1/3 77/1/3 75/1/3
f 77/1/5 57/1/5 58/1/5
f 58/1/5 78/1/5 77/1/5
f 79/1/5 59/1/5 60/1/5
f 60/1/5 80/1/5 79/1/5
f 80/1/4 60/1/4 56/1/4
f 56/1/4 76/1/4 80/1/4
f 78/1/3 58/1/3 61/1/3
f 61/1/3 81/1/3 78/1/3
f 81/1/5 61/1/5 62/1/5
f 62/1/5 82/1/5 81/1/5
f 82/1/5 62/1/5 63/1/5
f 63/1/5 83/1/5 82/1/5
f 83/1/5 63/1/5 64/1/5
f 64/1/5 84/1/5 83/1/5
f 84/1/4 64/1/4 59/1/4
f 59/1/4 79/1/4 84/1/4
f 85/1/2 65/1/2 66/1/2
f 66/1/2 86/1/2 85/1/2
f 87/1/2 67/1/2 65/1/2
f 65/1/2 85/1/2 87/1/2
f 88/1/2 68/1/2 67/1/2
f 67/1/2 87/1/2 88/1/2
f 89/1/2 69/1/2 70/1/2
f 70/1/2 90/1/2 89/1/2
f 86/1/3 66/1/3 69/1/3
f 69/1/3 89/1/3 86/1/3
f 89/1/6 91/1/6 85/1/6
f 85/1/6 86/1/6 89/1/6
f 91/1/6 92/1/6 87/1/6
f 87/1/6 85/1/6 91/1/6
f 92/1/6 93/1/6 88/1/6
f 88/1/6 87/1/6 92/1/6
f 93/1/4 71/1/4 68/1/4
f 68/1/4 88/1/4 93/1/4
f 94/1/2 72/1/2 71/1/2
f 71/1/2 93/1/2 94/1/2
f 90/1/3 70/1/3 73/1/3
f 73/1/3 95/1/3 90/1/3
f 95/1/6 96/1/6 89/1/6
f 89/1/6 90/1/6 95/1/6
f 97/1/6 98/1/6 94/1/6
f 94/1/6 93/1/6 97/1/6
f 98/1/4 74/1/4 72/1/4
f 72/1/4 94/1/4 98/1/4
f 95/1/3 73/1/3 75/1/3
f 75/1/3 99/1/3 95/1/3
f 99/1/6 100/1/6 96/1/6
f 96/1/6 95/1/6 99/1/6
f 101/1/6 102/1/6 98/1/6
f 98/1/6 97/1/6 101/1/6
f 102/1/4 76/1/4 74/1/4
f 74/1/4 98/1/4 102/1/4
f 99/1/3 75/1/3 77/1/3
f 77/1/3 103/1/3 99/1/3
f 103/1/6 104/1/6 100/1/6
f 100/1/6 99/1/6 103/1/6
f 103/1/5 77/1/5 78/1/5
f 78/1/5 104/1/5 103/1/5
f 105/1/6 106/1/6 102/1/6
f 102/1/6 101/1/6 105/1/6
f 105/1/5 79/1/5 80/1/5
f 80/1/5 106/1/5 105/1/5
f 106/1/4 80/1/4 76/1/4
f 76/1/4 102/1/4 106/1/4
f 104/1/3 78/1/3 81/1/3
f 81/1/3 107/1/3 104/1/3
f 107/1/6 108/1/6 109/1/6
f 109/1/6 104/1/6 107/1/6
f 107/1/5 81/1/5 82/1/5
f 82/1/5 108/1/5 107/1/5
f 108/1/6 110/1/6 111/1/6
f 111/1/6 109/1/6 108/1/6
f 108/1/5 82/1/5 83/1/5
f 83/1/5 110/1/5 108/1/5
f 110/1/6 112/1/6 105/1/6
f 105/1/6 111/1/6 110/1/6
f 110/1/5 83/1/5 84/1/5
f 84/1/5 112/1/5 110/1/5
f 112/1/4 84/1/4 79/1/4
f 79/1/4 105/1/4 112/1/4
f 113/1/2 91/1/2 89/1/2
f 89/1/2 114/1/2 113/1/2
f 115/1/2 92/1/2 91/1/2
f 91/1/2 113/1/2 115/1/2
f 116/1/2 93/1/2 92/1/2
f 92/1/2 115/1/2 116/1/2
f 114/1/3 89/1/3 96/1/3
f 96/1/3 117/1/3 114/1/3
f 117/1/6 118/1/6 113/1/6
f 113/1/6 114/1/6 117/1/6
f 118/1/6 119/1/6 115/1/6
f 115/1/6 113/1/6 118/1/6
f 119/1/6 120/1/6 116/1/6
f 116/1/6 115/1/6 119/1/6
f 120/1/4 97/1/4 93/1/4
f 93/1/4 116/1/4 120/1/4
f 117/1/3 96/1/3 100/1/3
f 100/1/3 121/1/3 117/1/3
f 121/1/6 122/1/6 118/1/6
f 118/1/6 117/1/6 121/1/6
f 122/1/6 123/1/6 119/1/6
f 119/1/6 118/1/6 122/1/6
f 123/1/6 124/1/6 120/1/6
f 120/1/6 119/1/6 123/1/6
f 124/1/4 101/1/4 97/1/4
f 97/1/4 120/1/4 124/1/4
f 121/1/3 100/1/3 104/1/3
f 104/1/3 125/1/3 121/1/3
f 125/1/6 126/1/6 122/1/6
f 122/1/6 121/1/6 125/1/6
f 125/1/5 104/1/5 109/1/5
f 109/1/5 126/1/5 125/1/5
f 126/1/6 127/1/6 123/1/6
f 123/1/6 122/1/6 126/1/6
f 126/1/5 109/1/5 111/1/5
f 111/1/5 127/1/5 126/1/5
f 127/1/6 128/1/6 124/1/6
f 124/1/6 123/1/6 127/1/6
f 127/1/5 111/1/5 105/1/5
f 105/1/5 128/1/5 127/1/5
f 128/1/4 105/1/4 101/1/4
f 101/1/4 124/1/4 128/1/4
