v 0.5 0.5 15.5
v 0.5 6.0 15.5
v 0.5 0.5 10.0
v 0.5 6.0 10.0
v 6.0 0.5 10.0
v 6.0 0.5 15.5
v 6.0 6.0 15.5
v 0.5 10.0 6.0
v 0.5 15.5 6.0
v 0.5 10.0 0.5
v 0.5 15.5 0.5
v 6.0 15.5 6.0
v 6.0 15.5 0.5
v 6.0 10.0 0.5
v 0.5 10.0 15.5
v 0.5 15.5 15.5
v 0.5 10.0 10.0
v 0.5 15.5 10.0
v 6.0 15.5 15.5
v 6.0 15.5 10.0
v 6.0 10.0 15.5
v 15.5 0.5 0.5
v 15.5 6.0 0.5
v 15.5 6.0 6.0
v 15.5 0.5 6.0
v 10.0 0.5 0.5
v 10.0 0.5 6.0
v 10.0 6.0 0.5
v 15.5 0.5 10.0
v 15.5 6.0 10.0
v 15.5 6.0 15.5
v 15.5 0.5 15.5
v 10.0 0.5 10.0
v 10.0 0.5 15.5
v 10.0 6.0 15.5
v 15.5 10.0 0.5
v 15.5 15.5 0.5
v 15.5 15.5 6.0
v 15.5 10.0 6.0
v 10.0 15.5 0.5
v 10.0 15.5 6.0
v 10.0 10.0 0.5
v 15.5 10.0 10.0
v 15.5 15.5 10.0
v 15.5 15.5 15.5
v 15.5 10.0 15.5
v 10.0 15.5 10.0
v 10.0 15.5 15.5
v 10.0 10.0 15.5
v 0.5 0.5 0.5
vt 0.0 0.0
vn -0.99999994 0.0 0.0
vn 0.0 -0.99999994 0.0
vn 0.0 0.0 0.99999994
vn 0.0 0.99999994 0.0
vn 0.0 0.0 -0.99999994
vn 0.99999994 0.0 0.0
vn 0.0 1.0 0.0
vn 0.0 -1.0 0.0
vn 0.0 0.0 1.0
vn 0.0 0.0 -1.0
vn -1.0 0.0 0.0
vn 1.0 0.0 0.0
f 1/1/1 2/1/1 3/1/1
f 2/1/1 4/1/1 3/1/1
f 5/1/2 6/1/2 3/1/2
f 6/1/2 1/1/2 3/1/2
f 1/1/3 6/1/3 7/1/3
f 1/1/3 7/1/3 2/1/3
f 8/1/1 9/1/1 10/1/1
f 9/1/1 11/1/1 10/1/1
f 11/1/4 9/1/4 12/1/4
f 11/1/4 12/1/4 13/1/4
f 11/1/5 13/1/5 10/1/5
f 13/1/5 14/1/5 10/1/5
f 15/1/1 16/1/1 17/1/1
f 16/1/1 18/1/1 17/1/1
f 18/1/4 16/1/4 19/1/4
f 18/1/4 19/1/4 20/1/4
f 15/1/3 21/1/3 19/1/3
f 15/1/3 19/1/3 16/1/3
f 22/1/6 23/1/6 24/1/6
f 22/1/6 24/1/6 25/1/6
f 22/1/2 25/1/2 26/1/2
f 25/1/2 27/1/2 26/1/2
f 28/1/5 23/1/5 26/1/5
f 23/1/5 22/1/5 26/1/5
f 29/1/6 30/1/6 31/1/6
f 29/1/6 31/1/6 32/1/6
f 29/1/2 32/1/2 33/1/2
f 32/1/2 34/1/2 33/1/2
f 34/1/3 32/1/3 31/1/3
f 34/1/3 31/1/3 35/1/3
f 36/1/6 37/1/6 38/1/6
f 36/1/6 38/1/6 39/1/6
f 40/1/4 41/1/4 38/1/4
f 40/1/4 38/1/4 37/1/4
f 40/1/5 37/1/5 42/1/5
f 37/1/5 36/1/5 42/1/5
f 43/1/6 44/1/6 45/1/6
f 43/1/6 45/1/6 46/1/6
f 47/1/4 48/1/4 45/1/4
f 47/1/4 45/1/4 44/1/4
f 49/1/3 46/1/3 45/1/3
f 49/1/3 45/1/3 48/1/3
f 26/1/2 27/1/2 50/1/2
f 27/1/7 50/1/7 50/1/7
f 50/1/7 28/1/7 50/1/7
f 28/1/5 26/1/5 50/1/5
f 33/1/8 34/1/8 5/1/8
f 34/1/8 6/1/8 5/1/8
f 6/1/9 34/1/9 35/1/9
f 6/1/9 35/1/9 7/1/9
f 13/1/7 12/1/7 41/1/7
f 13/1/7 41/1/7 40/1/7
f 13/1/10 40/1/10 14/1/10
f 40/1/10 42/1/10 14/1/10
f 20/1/7 19/1/7 48/1/7
f 20/1/7 48/1/7 47/1/7
f 21/1/9 49/1/9 48/1/9
f 21/1/9 48/1/9 19/1/9
f 50/1/7 8/1/7 50/1/7
f 8/1/1 10/1/1 50/1/1
f 10/1/5 14/1/5 50/1/5
f 14/1/7 50/1/7 50/1/7
f 2/1/11 15/1/11 4/1/11
f 15/1/11 17/1/11 4/1/11
f 2/1/9 7/1/9 21/1/9
f 2/1/9 21/1/9 15/1/9
f 23/1/12 36/1/12 39/1/12
f 23/1/12 39/1/12 24/1/12
f 42/1/10 36/1/10 28/1/10
f 36/1/10 23/1/10 28/1/10
f 30/1/12 43/1/12 46/1/12
f 30/1/12 46/1/12 31/1/12
f 35/1/9 31/1/9 46/1/9
f 35/1/9 46/1/9 49/1/9
f 3/1/1 4/1/1 50/1/1
f 4/1/7 50/1/7 50/1/7
f 50/1/7 5/1/7 50/1/7
f 5/1/2 3/1/2 50/1/2
f 17/1/11 18/1/11 8/1/11
f 18/1/11 9/1/11 8/1/11
f 9/1/7 18/1/7 20/1/7
f 9/1/7 20/1/7 12/1/7
f 25/1/12 24/1/12 30/1/12
f 25/1/12 30/1/12 29/1/12
f 25/1/8 29/1/8 27/1/8
f 29/1/8 33/1/8 27/1/8
f 39/1/12 38/1/12 44/1/12
f 39/1/12 44/1/12 43/1/12
f 41/1/7 47/1/7 44/1/7
f 41/1/7 44/1/7 38/1/7
f 4/1/11 17/1/11 50/1/11
f 17/1/11 8/1/11 50/1/11
f 24/1/12 39/1/12 43/1/12
f 24/1/12 43/1/12 30/1/12
f 27/1/8 33/1/8 50/1/8
f 33/1/8 5/1/8 50/1/8
f 12/1/7 20/1/7 47/1/7
f 12/1/7 47/1/7 41/1/7
f 14/1/10 42/1/10 50/1/10
f 42/1/10 28/1/10 50/1/10
f 7/1/9 35/1/9 49/1/9
f 7/1/9 49/1/9 21/1/9
