# Blender v2.81 (sub 16) OBJ File: ''
# www.blender.org
o Roline1
v 6.073027 11.546845 -0.350255
v 14.722853 11.546845 0.000002
v 14.753096 11.546845 0.000002
v 14.753096 11.546855 -56.180176
v 14.722853 11.546855 -56.180176
v 6.073027 11.546855 -56.180176
v 6.073027 11.546853 -48.654438
v 6.073027 11.546853 -44.319748
v 6.073027 11.546851 -34.476265
v 14.722853 0.000000 0.000000
v 14.753096 0.000000 0.000000
v 0.000000 0.000000 0.000000
v 0.000000 0.000006 -37.480740
v 14.753096 0.000006 -37.480740
v 0.000000 0.534460 0.000000
v 0.000000 0.534467 -37.480740
v 6.073027 0.534467 -37.480740
v 6.073027 0.534460 0.000000
v 14.753096 0.534467 -37.480740
v 6.073027 0.534467 -40.671246
v 14.180569 0.534467 -40.671246
v 14.753096 0.534467 -40.671246
v 6.073027 1.068930 -40.671246
v 6.073027 1.068924 0.000000
v 14.180569 1.068930 -40.671246
v 0.000000 1.068924 0.000000
v 0.000000 1.068929 -34.476265
v 0.000000 1.068931 -44.319748
v 14.180569 1.068931 -44.319748
v 0.000000 4.412556 0.000001
v 0.000000 4.412562 -34.476265
v 2.628708 7.500635 -0.151607
v 2.628708 7.500641 -34.476265
v 2.628708 7.500642 -44.319748
v 2.628708 7.500643 -48.654438
v 6.073027 2.322859 -48.654438
v 6.073027 1.664754 -48.654438
v 0.000000 1.664754 -48.654438
v 0.000000 4.412564 -48.654438
v 14.180569 2.322859 -48.654438
v 14.180569 1.664754 -48.654438
v 14.180569 2.322857 -40.671246
v 14.180569 1.664754 -44.319748
v 14.753096 2.322857 -40.671246
v 14.753096 2.322860 -56.180176
v 14.722853 2.322860 -56.180176
v 6.073027 2.322860 -56.180176
v 0.000000 1.664754 -44.319748
v 0.000000 4.412563 -44.319748
v 0.000000 7.500641 -34.476265
v 0.000000 7.500642 -44.319748
vt 0.763527 0.000000
vt 0.893053 0.125788
vt 0.893053 0.198240
vt 0.377443 0.740778
vt 0.377896 0.933776
vt 0.377443 0.933776
vt 0.385254 0.626468
vt 0.385253 0.000000
vt 0.385706 0.000000
vt 1.000000 0.000000
vt 0.991997 0.626468
vt 0.991997 0.000000
vt 0.893053 0.626468
vt 0.983993 0.000000
vt 0.983993 0.626468
vt 0.598142 0.771550
vt 0.598142 0.626468
vt 0.606145 0.626468
vt 0.350663 0.885860
vt 0.302887 0.885860
vt 0.302887 0.750347
vt 0.991996 0.053327
vt 0.991997 0.679795
vt 0.983993 0.679795
vt 0.350663 0.740778
vt 0.358666 0.876290
vt 0.350663 0.876290
vt 0.385253 0.576250
vt 0.385253 0.740777
vt 0.294313 0.679795
vt 0.713005 0.236979
vt 0.763074 0.813229
vt 0.713005 0.813229
vt 0.666763 0.810695
vt 0.666763 0.236980
vt 0.606173 0.807375
vt 0.606173 0.236980
vt 0.666762 0.072452
vt 0.606173 0.072452
vt 0.666762 0.000000
vt 0.606173 0.000000
vt 0.492085 0.863487
vt 0.445843 0.819550
vt 0.523378 0.761980
vt 0.533232 0.626468
vt 0.523378 0.626468
vt 0.404030 0.996922
vt 0.394176 0.935939
vt 0.404030 0.863487
vt 0.350663 0.885860
vt 0.172908 0.939017
vt 0.008003 0.312550
vt 0.034783 0.259222
vt 0.377896 0.740778
vt 0.378349 0.894951
vt 0.377896 0.894951
vt 0.718866 0.967403
vt 0.606173 0.813229
vt 0.718866 0.813229
vt 0.893053 0.863487
vt 0.901975 0.626468
vt 0.901975 0.863487
vt 0.713005 0.072452
vt 0.754152 0.072452
vt 0.666762 0.072452
vt 0.666763 0.236979
vt 0.718866 0.813229
vt 0.758230 0.977757
vt 0.718867 0.977757
vt 0.404030 0.902791
vt 0.434004 0.863487
vt 0.434004 0.931271
vt 0.473368 0.863487
vt 0.473368 0.915103
vt 0.434004 0.915103
vt 0.713005 0.000000
vt 0.754152 0.000000
vt 0.533232 0.761980
vt 0.598142 0.626468
vt 0.473368 0.863487
vt 0.481371 0.964994
vt 0.473368 0.964994
vt 0.893053 0.362768
vt 0.893053 0.933163
vt 0.763527 0.939017
vt 0.763074 0.939017
vt 0.763074 0.000000
vt 0.893053 0.000000
vt 0.377896 0.740778
vt 0.606173 0.000000
vt 0.606173 0.626468
vt 1.000000 0.626468
vt 0.893053 0.000000
vt 0.606145 0.873057
vt 0.598142 0.873057
vt 0.302887 0.740778
vt 0.350663 0.740778
vt 0.983993 0.000000
vt 0.991996 0.000000
vt 0.358666 0.740778
vt 0.294313 0.000000
vt 0.385253 0.000000
vt 0.172908 0.740778
vt 0.172908 0.679795
vt 0.763074 0.236979
vt 0.385253 0.761980
vt 0.533232 0.863487
vt 0.385253 0.996922
vt 0.385253 0.935939
vt 0.394176 0.863487
vt 0.377443 0.876290
vt 0.377443 0.885860
vt 0.000000 0.939017
vt 0.000000 0.312550
vt 0.008003 0.259222
vt 0.034783 0.000000
vt 0.172907 0.000000
vt 0.378349 0.740778
vt 0.606173 0.967403
vt 0.893053 0.626468
vt 0.763074 0.072452
vt 0.758230 0.813229
vt 0.598142 0.863487
vt 0.481371 0.863487
vt 0.302434 1.000000
vt 0.172908 1.000000
vt 0.294313 0.874212
vt 0.172908 0.874212
vt 0.294313 0.740778
vt 0.302887 0.740778
vt 0.302887 1.000000
vn -0.0000 1.0000 0.0000
vn 0.0000 -0.0000 1.0000
vn 0.0000 -1.0000 -0.0000
vn -1.0000 0.0000 0.0000
vn 0.0000 0.0000 -1.0000
vn -0.7615 0.6482 0.0000
vn 1.0000 0.0000 0.0000
s 1
f 5/1/1 7/2/1 8/3/1
f 10/4/2 3/5/2 2/6/2
f 14/7/3 11/8/3 10/9/3
f 15/10/4 13/11/4 12/12/4
f 16/13/1 18/14/1 17/15/1
f 17/16/5 19/17/5 14/18/5
f 17/19/3 20/20/3 21/21/3
f 17/22/4 18/23/4 24/24/4
f 20/25/5 25/26/5 21/27/5
f 27/28/3 28/29/3 23/30/3
f 31/31/4 26/32/4 30/33/4
f 32/34/6 31/31/6 30/33/6
f 33/35/6 1/36/6 9/37/6
f 34/38/6 9/37/6 8/39/6
f 35/40/6 8/39/6 7/41/6
f 39/42/5 35/43/5 36/44/5
f 41/45/5 36/44/5 40/46/5
f 42/47/7 43/48/7 40/49/7
f 22/50/5 21/27/5 25/26/5
f 3/51/7 19/52/7 44/53/7
f 5/54/5 45/55/5 46/56/5
f 47/57/4 7/58/4 6/59/4
f 48/60/5 29/61/5 28/62/5
f 31/31/4 49/63/4 48/64/4
f 51/65/4 31/31/4 50/66/4
f 50/67/1 34/68/1 51/69/1
f 50/70/2 31/71/2 33/72/2
f 49/73/5 51/74/5 34/75/5
f 34/38/6 39/76/6 49/63/6
f 48/64/4 39/76/4 38/77/4
f 37/78/3 41/45/3 43/79/3
f 24/80/5 15/81/5 26/82/5
f 9/83/1 1/84/1 2/85/1
f 2/85/1 3/86/1 4/87/1
f 5/1/1 6/88/1 7/2/1
f 2/85/1 4/87/1 5/1/1
f 8/3/1 9/83/1 5/1/1
f 9/83/1 2/85/1 5/1/1
f 10/4/2 11/89/2 3/5/2
f 10/9/3 12/90/3 13/91/3
f 13/91/3 14/7/3 10/9/3
f 15/10/4 16/92/4 13/11/4
f 16/13/1 15/93/1 18/14/1
f 14/18/5 13/94/5 17/16/5
f 13/94/5 16/95/5 17/16/5
f 22/96/3 19/97/3 21/21/3
f 19/97/3 17/19/3 21/21/3
f 24/24/4 23/98/4 17/22/4
f 23/98/4 20/99/4 17/22/4
f 20/25/5 23/100/5 25/26/5
f 24/101/3 26/102/3 27/28/3
f 28/29/3 29/103/3 23/30/3
f 29/103/3 25/104/3 23/30/3
f 23/30/3 24/101/3 27/28/3
f 31/31/4 27/105/4 26/32/4
f 32/34/6 33/35/6 31/31/6
f 33/35/6 32/34/6 1/36/6
f 34/38/6 33/35/6 9/37/6
f 35/40/6 34/38/6 8/39/6
f 7/106/5 36/44/5 35/43/5
f 36/44/5 37/78/5 38/107/5
f 39/42/5 36/44/5 38/107/5
f 41/45/5 37/78/5 36/44/5
f 42/47/7 25/108/7 43/48/7
f 25/108/7 29/109/7 43/48/7
f 43/48/7 41/110/7 40/49/7
f 25/26/5 42/111/5 44/112/5
f 44/112/5 22/50/5 25/26/5
f 3/51/7 11/113/7 19/52/7
f 11/113/7 14/114/7 19/52/7
f 19/52/7 22/115/7 44/53/7
f 45/116/7 4/117/7 44/53/7
f 4/117/7 3/51/7 44/53/7
f 5/54/5 4/118/5 45/55/5
f 47/57/4 36/119/4 7/58/4
f 48/60/5 43/120/5 29/61/5
f 48/64/4 28/121/4 27/105/4
f 27/105/4 31/31/4 48/64/4
f 51/65/4 49/63/4 31/31/4
f 50/67/1 33/122/1 34/68/1
f 34/38/6 35/40/6 39/76/6
f 48/64/4 49/63/4 39/76/4
f 43/79/3 48/123/3 37/78/3
f 48/123/3 38/107/3 37/78/3
f 24/80/5 18/124/5 15/81/5
f 46/125/1 47/126/1 40/127/1
f 47/126/1 36/128/1 40/127/1
f 40/127/1 42/129/1 44/130/1
f 44/130/1 45/131/1 40/127/1
f 45/131/1 46/125/1 40/127/1
